<?xml version="1.0" standalone="no"?>
<!DOCTYPE svg PUBLIC "-//W3C//DTD SVG 20010904//EN"
 "http://www.w3.org/TR/2001/REC-SVG-20010904/DTD/svg10.dtd">
<svg version="1.0" xmlns="http://www.w3.org/2000/svg"
 width="226.000000pt" height="226.000000pt" viewBox="0 0 226.000000 226.000000"
 preserveAspectRatio="xMidYMid meet">
<metadata>
Created by potrace 1.14, written by Peter Selinger 2001-2017
</metadata>
<g transform="translate(0.000000,226.000000) scale(0.100000,-0.100000)"
fill="#000000" stroke="none">
<path d="M720 2161 c0 -23 4 -40 8 -37 10 6 9 62 -1 72 -4 4 -7 -12 -7 -35z"/>
<path d="M1374 2169 c-3 -6 -19 -9 -35 -5 -39 7 -75 -11 -87 -43 -5 -14 -40
-120 -76 -236 -37 -115 -69 -215 -71 -222 -3 -8 -24 -4 -72 12 -73 26 -125 25
-154 -1 -40 -36 -88 -158 -170 -434 -55 -184 -185 -593 -209 -658 -41 -108
-17 -173 79 -219 l59 -28 -5 -47 c-7 -61 2 -95 28 -103 26 -9 64 25 79 71 7
19 14 34 17 34 3 0 57 -17 121 -39 65 -21 141 -44 170 -52 l53 -13 -7 -43 c-9
-60 14 -95 59 -91 27 3 35 10 55 51 20 41 25 46 42 37 70 -38 137 27 185 180
10 30 60 170 111 310 240 658 260 735 211 784 -22 22 -45 31 -129 50 -16 4
-28 10 -28 15 0 4 30 111 66 237 37 126 69 244 71 262 6 39 -8 58 -48 67 -22
5 -29 12 -29 30 0 22 -11 28 -128 65 -139 44 -148 45 -158 29z m143 -60 c54
-17 100 -33 102 -35 2 -2 1 -14 -3 -28 l-6 -24 -110 36 c-78 26 -110 42 -110
53 0 37 6 37 127 -2z m-174 15 c8 -3 13 -13 10 -24 -6 -23 1 -27 144 -75 124
-42 143 -44 143 -19 0 11 7 13 28 8 15 -4 31 -10 36 -14 4 -5 -6 -53 -23 -107
-17 -54 -49 -165 -72 -248 -23 -82 -43 -153 -45 -157 -2 -3 -26 1 -53 9 l-48
16 12 41 c14 46 6 79 -22 94 -10 6 -45 17 -78 26 -56 15 -61 15 -85 -2 -13
-10 -28 -32 -32 -49 l-8 -31 -55 21 c-30 11 -55 26 -55 33 0 13 120 398 142
457 10 26 30 33 61 21z m-270 -500 c234 -92 421 -157 527 -185 122 -31 150
-50 150 -97 0 -32 -104 -341 -231 -684 -55 -147 -99 -274 -99 -282 0 -8 -4
-18 -10 -21 -5 -3 -85 19 -177 49 -93 31 -251 80 -353 110 -102 30 -217 67
-257 83 l-72 28 39 120 c53 166 130 413 180 580 47 157 92 272 122 310 27 35
69 33 181 -11z m325 9 c54 -17 54 -17 48 -52 -8 -52 -17 -56 -82 -31 -79 29
-85 35 -72 71 12 34 28 36 106 12z m-788 -1068 c27 -14 138 -48 380 -119 171
-50 391 -123 402 -134 11 -11 -44 -113 -72 -134 -25 -18 -27 -18 -85 2 -33 11
-96 30 -140 41 -109 28 -327 101 -320 107 2 3 -32 27 -78 54 -88 53 -137 94
-137 115 0 7 -4 13 -9 13 -18 0 3 -43 38 -77 20 -19 61 -48 91 -65 60 -32 55
-32 -37 2 -33 12 -76 35 -95 50 -28 24 -33 34 -32 71 0 24 6 57 12 72 13 30
25 30 82 2z m108 -260 c6 -5 -26 -72 -37 -79 -16 -10 -24 19 -17 60 6 30 10
34 29 28 12 -3 23 -8 25 -9z m462 -145 c12 -8 12 -13 -3 -44 -9 -20 -21 -36
-26 -36 -12 0 -28 23 -25 38 1 6 2 21 3 32 1 21 25 26 51 10z"/>
<path d="M923 1604 c-22 -15 -49 -43 -58 -63 -20 -41 -46 -121 -40 -121 3 0
18 30 35 66 31 69 93 139 112 128 7 -4 8 -2 4 4 -9 15 -5 16 -53 -14z"/>
<path d="M1025 1358 c-5 -14 -88 -271 -167 -521 -47 -150 -56 -211 -24 -176 7
8 20 41 30 74 10 33 56 179 102 325 46 147 84 276 84 288 0 24 -18 30 -25 10z"/>
<path d="M1229 1263 c-67 -172 -219 -623 -219 -647 0 -4 8 -6 17 -4 13 2 29
40 59 138 23 74 71 218 108 318 36 101 66 190 66 197 0 27 -20 26 -31 -2z"/>
<path d="M1036 1199 c-9 -29 -29 -89 -45 -133 -49 -136 -119 -358 -109 -348
23 23 186 518 174 529 -3 3 -12 -19 -20 -48z"/>
<path d="M742 1155 c-17 -46 -47 -138 -67 -205 -19 -67 -38 -127 -41 -133 -3
-7 1 -4 9 5 17 22 143 406 135 414 -2 2 -18 -35 -36 -81z"/>
<path d="M1238 1151 c-47 -111 -60 -167 -24 -100 25 46 71 177 65 184 -2 2
-21 -36 -41 -84z"/>
<path d="M1425 1198 c-80 -222 -215 -642 -207 -650 13 -13 27 8 45 67 9 28 57
169 106 314 50 145 91 267 91 272 0 14 -30 11 -35 -3z"/>
<path d="M1487 1163 c-15 -28 -139 -425 -133 -430 5 -6 74 190 101 287 15 52
30 107 35 123 8 25 7 36 -3 20z"/>
<path d="M1132 849 c-26 -63 -62 -187 -62 -209 1 -18 22 36 61 155 33 102 34
136 1 54z"/>
<path d="M1322 737 c-21 -42 -55 -157 -48 -164 3 -3 57 137 71 185 10 34 1 26
-23 -21z"/>
<path d="M647 2130 c3 -11 9 -20 14 -20 11 0 11 3 3 24 -9 23 -23 20 -17 -4z"/>
<path d="M790 2131 c-7 -15 -7 -21 0 -21 12 0 25 28 17 36 -3 3 -10 -4 -17
-15z"/>
<path d="M550 2134 c0 -6 14 -23 30 -39 17 -16 30 -24 30 -19 0 6 -13 23 -30
39 -16 16 -30 24 -30 19z"/>
<path d="M874 2115 c-21 -21 -38 -45 -31 -45 9 0 58 51 55 58 -2 4 -12 -2 -24
-13z"/>
<path d="M687 2079 c-38 -10 -55 -26 -76 -68 -30 -59 -6 -137 49 -166 92 -48
194 11 194 109 -1 92 -79 150 -167 125z m82 -171 c-11 -10 -31 -18 -44 -18
-13 0 -33 8 -44 18 -21 17 -20 17 44 17 64 0 65 0 44 -17z"/>
<path d="M544 2025 c10 -8 23 -12 29 -8 11 7 -12 23 -33 23 -12 -1 -11 -4 4
-15z"/>
<path d="M885 2029 c-11 -17 0 -20 21 -4 17 13 17 14 2 15 -9 0 -20 -5 -23
-11z"/>
<path d="M483 1958 c-2 -5 14 -8 36 -8 23 0 41 3 41 8 0 4 -16 7 -36 7 -20 0
-38 -3 -41 -7z"/>
<path d="M894 1958 c-3 -4 16 -8 42 -8 26 0 45 2 42 5 -9 9 -79 12 -84 3z"/>
<path d="M548 1893 c-10 -2 -18 -9 -18 -14 0 -13 13 -11 36 6 19 14 14 17 -18
8z"/>
<path d="M880 1890 c0 -7 24 -20 36 -20 13 0 1 19 -16 23 -11 3 -20 2 -20 -3z"/>
<path d="M575 1815 c-16 -13 -27 -27 -24 -30 3 -3 19 6 34 20 16 13 27 27 24
30 -3 3 -19 -6 -34 -20z"/>
<path d="M865 1810 c16 -16 31 -28 33 -25 7 7 -39 55 -52 55 -5 0 3 -13 19
-30z"/>
<path d="M650 1790 c-6 -12 -9 -24 -7 -27 3 -2 11 5 17 17 6 12 9 24 7 27 -3
2 -11 -5 -17 -17z"/>
<path d="M790 1779 c7 -11 14 -18 17 -15 8 8 -5 36 -17 36 -7 0 -7 -6 0 -21z"/>
<path d="M720 1748 c0 -23 2 -39 5 -37 8 9 12 79 4 79 -5 0 -9 -19 -9 -42z"/>
<path d="M2028 505 c-2 -19 0 -41 4 -48 4 -7 8 9 8 36 0 55 -6 62 -12 12z"/>
<path d="M1954 464 c3 -9 6 -18 6 -20 0 -2 4 -4 9 -4 5 0 7 9 4 20 -3 11 -10
20 -15 20 -6 0 -7 -7 -4 -16z"/>
<path d="M2096 464 c-8 -21 -8 -24 3 -24 5 0 11 9 14 20 6 24 -8 27 -17 4z"/>
<path d="M1860 463 c0 -16 50 -66 58 -58 3 3 -8 20 -26 38 -18 17 -32 26 -32
20z"/>
<path d="M2175 440 c-16 -16 -26 -32 -24 -35 3 -3 18 9 34 25 16 16 26 32 24
35 -3 3 -18 -9 -34 -25z"/>
<path d="M1978 404 c-90 -38 -96 -173 -11 -225 52 -32 117 -22 160 25 18 20
33 46 34 58 4 72 -13 107 -64 138 -38 24 -69 24 -119 4z m68 -151 c48 5 53 1
27 -19 -28 -21 -59 -16 -90 12 -26 23 -26 24 -4 13 13 -6 44 -9 67 -6z"/>
<path d="M1854 355 c21 -16 32 -13 21 4 -3 6 -14 11 -23 11 -15 -1 -15 -2 2
-15z"/>
<path d="M2190 360 c-12 -8 -11 -10 7 -10 12 0 25 5 28 10 8 13 -15 13 -35 0z"/>
<path d="M1790 290 c0 -6 18 -10 41 -10 22 0 38 4 35 8 -7 12 -76 13 -76 2z"/>
<path d="M2200 288 c0 -4 14 -8 30 -8 17 0 30 4 30 9 0 5 -13 9 -30 9 -16 -1
-30 -5 -30 -10z"/>
<path d="M1853 223 c-7 -2 -13 -8 -13 -13 0 -10 38 -1 46 11 6 10 -13 11 -33
2z"/>
<path d="M2184 221 c8 -12 46 -21 46 -11 0 8 -24 20 -41 20 -6 0 -8 -4 -5 -9z"/>
<path d="M1880 145 c-19 -19 -29 -35 -24 -35 13 0 69 58 63 65 -3 2 -21 -11
-39 -30z"/>
<path d="M2150 175 c0 -15 51 -67 58 -60 3 3 -8 20 -26 38 -18 17 -32 27 -32
22z"/>
<path d="M1957 127 c-11 -29 -9 -43 4 -30 6 6 9 19 7 29 -3 18 -4 18 -11 1z"/>
<path d="M2090 132 c0 -5 7 -17 16 -28 14 -17 15 -17 10 -1 -3 10 -6 23 -6 28
0 5 -4 9 -10 9 -5 0 -10 -4 -10 -8z"/>
<path d="M2028 95 c-2 -19 0 -41 4 -48 4 -7 8 9 8 36 0 55 -6 62 -12 12z"/>
</g>
</svg>
