<svg xmlns="http://www.w3.org/2000/svg" version="1.1" xmlns:xlink="http://www.w3.org/1999/xlink" xmlns:svgjs="http://svgjs.dev/svgjs" viewBox="0 0 2400 800" opacity="0.25"><defs><linearGradient x1="50%" y1="0%" x2="50%" y2="100%" id="sssurf-grad"><stop stop-color="hsl(208, 77%, 50%)" stop-opacity="1" offset="0%"></stop><stop stop-color="hsl(208, 74%, 93%)" stop-opacity="1" offset="100%"></stop></linearGradient></defs><g fill="url(#sssurf-grad)" transform="matrix(1,0,0,1,0,-108.57443237304688)"><path d="M 0 302.1488810242989 Q 600 450 600 328.5680418226336 Q 1200 450 1200 328.55689873195513 Q 1800 450 1800 309.30080906615405 Q 2400 450 2400 323.8400351502966 L 2400 800 L 0 800 L 0 336.19694016682615 Z" transform="matrix(1,0,0,1,0,35)" opacity="0.05"></path><path d="M 0 302.1488810242989 Q 600 450 600 328.5680418226336 Q 1200 450 1200 328.55689873195513 Q 1800 450 1800 309.30080906615405 Q 2400 450 2400 323.8400351502966 L 2400 800 L 0 800 L 0 336.19694016682615 Z" transform="matrix(1,0,0,1,0,70)" opacity="0.19"></path><path d="M 0 302.1488810242989 Q 600 450 600 328.5680418226336 Q 1200 450 1200 328.55689873195513 Q 1800 450 1800 309.30080906615405 Q 2400 450 2400 323.8400351502966 L 2400 800 L 0 800 L 0 336.19694016682615 Z" transform="matrix(1,0,0,1,0,105)" opacity="0.32"></path><path d="M 0 302.1488810242989 Q 600 450 600 328.5680418226336 Q 1200 450 1200 328.55689873195513 Q 1800 450 1800 309.30080906615405 Q 2400 450 2400 323.8400351502966 L 2400 800 L 0 800 L 0 336.19694016682615 Z" transform="matrix(1,0,0,1,0,140)" opacity="0.46"></path><path d="M 0 302.1488810242989 Q 600 450 600 328.5680418226336 Q 1200 450 1200 328.55689873195513 Q 1800 450 1800 309.30080906615405 Q 2400 450 2400 323.8400351502966 L 2400 800 L 0 800 L 0 336.19694016682615 Z" transform="matrix(1,0,0,1,0,175)" opacity="0.59"></path><path d="M 0 302.1488810242989 Q 600 450 600 328.5680418226336 Q 1200 450 1200 328.55689873195513 Q 1800 450 1800 309.30080906615405 Q 2400 450 2400 323.8400351502966 L 2400 800 L 0 800 L 0 336.19694016682615 Z" transform="matrix(1,0,0,1,0,210)" opacity="0.73"></path><path d="M 0 302.1488810242989 Q 600 450 600 328.5680418226336 Q 1200 450 1200 328.55689873195513 Q 1800 450 1800 309.30080906615405 Q 2400 450 2400 323.8400351502966 L 2400 800 L 0 800 L 0 336.19694016682615 Z" transform="matrix(1,0,0,1,0,245)" opacity="0.86"></path><path d="M 0 302.1488810242989 Q 600 450 600 328.5680418226336 Q 1200 450 1200 328.55689873195513 Q 1800 450 1800 309.30080906615405 Q 2400 450 2400 323.8400351502966 L 2400 800 L 0 800 L 0 336.19694016682615 Z" transform="matrix(1,0,0,1,0,280)" opacity="1.00"></path></g></svg>